<?xml version="1.0" ?><!DOCTYPE svg  PUBLIC '-//W3C//DTD SVG 1.1//EN'  'http://www.w3.org/Graphics/SVG/1.1/DTD/svg11.dtd'><svg id="Capa_1" style="enable-background:new 0 0 512 512;" version="1.1" viewBox="0 0 512 512" xml:space="preserve" xmlns="http://www.w3.org/2000/svg" xmlns:xlink="http://www.w3.org/1999/xlink"><style type="text/css">
	.st0{fill:#FFDE00;}
	.st1{fill:#432918;}
	.st2{fill:#FFFFFF;}
</style><g><circle class="st0" cx="256" cy="253" id="cabeza" r="245.7"/><g id="barba"><path class="st1" d="M395.2,339.6c-26.5,18-8.8,54.1-40,84.2c-12.2,11.8-24.3,19.6-35.8,24.7     C300.6,459,278.2,465,254.1,465c-25.7,0-49.5-6.9-69.1-18.6c-9.7-4.8-19.4-11.4-29.8-20.8c-31.9-28.7-15.3-66.3-35.2-82.4     c-31.1-25.2-97.8-13.3-96.9-10.9C57,426.3,134.3,506.3,256.4,506.3s211.5-100,232.4-173.8C489.1,331.3,433.1,313.8,395.2,339.6z" id="XMLID_3_"/><path class="st1" d="M388.4,325.5c0,12.7-70.1,0-134.9,0s-128.8,16.2-128.8,3.5s61.3-39.3,126.1-39.3     S388.4,312.7,388.4,325.5z" id="XMLID_14_"/></g><g id="Capa_2"/><g id="ojos"><g id="ojo_izquierdo"><circle class="st2" cx="165" cy="185" id="XMLID_1_" r="48.5"/><circle cx="165" cy="185" id="XMLID_5_" r="30.3"/></g><g id="ojo_derecho"><circle class="st2" cx="352" cy="185" id="XMLID_2_" r="48.5"/><circle cx="352" cy="185" id="XMLID_4_" r="30.3"/></g></g><path d="M149.4,354.3c-5-18,37.7,27.3,106.4,27.1c58.2-0.2,110.5-39.2,107-27.1c-7.4,25.9-47.3,75.7-107.2,75.7    C198.2,430,157.1,382.3,149.4,354.3z" id="boca_2_"/></g></svg>